<svg xmlns="http://www.w3.org/2000/svg" width="324" height="324" fill="none"><g clip-path="url(#a)"><path fill="#fff" d="M0 0h324v324H0V0Z"/><path fill="#000" fill-rule="evenodd" d="M167.036 214c-1.024-2.678-1.536-5.15-1.536-7.417 0-3.296 1.434-8.653 4.3-16.07 3.483-9.271 7.783-16.688 12.904-22.25 5.12-5.563 15.155-11.435 30.106-17.616 5.735-2.266 12.084-4.069 19.047-5.408 6.963-1.34 11.367-2.318 13.21-2.936 9.626-3.708 16.487-7.52 20.583-11.434 5.12-4.739 8.294-11.229 9.523-19.47 1.639-2.266 3.482-3.399 5.53-3.399 2.867 0 4.3 1.854 4.3 5.563 0 1.854-1.535 4.738-4.607 8.653-4.916 7.005-8.192 11.743-9.83 14.215-2.663 4.533-11.47 10.508-26.42 17.925 27.853 7.005 42.292 21.735 43.316 44.192.204 3.709-.41 6.696-1.844 8.962-1.433 2.266-2.97 3.4-4.608 3.4-1.638 0-2.765-1.237-3.38-3.709a176.4 176.4 0 0 0 .615-5.872c.205-2.266.308-3.708.308-4.326 0-7.623-3.175-15.143-9.524-22.56-7.783-8.653-17.408-13.082-28.877-13.288-.82-.619-1.844-.928-3.073-.928-2.662 0-3.993 1.34-3.993 4.018 0 .618.256 1.597.768 2.936s.768 2.42.768 3.245c0 3.502-1.331 5.253-3.994 5.253-1.024 0-3.584-1.493-7.68-4.48-4.096-2.988-7.987-4.482-11.674-4.482-5.735 0-9.78 2.112-12.135 6.335-2.355 4.224-4.864 6.645-7.526 7.263-5.94 1.236-10.24 4.326-12.903 9.271-1.843 3.296-4.608 11.331-8.295 24.105l-3.379.309Zm-11.5 1.5c-2.257 0-4.002-.721-5.233-2.163-4.105-19.16-9.237-28.74-15.395-28.74-.82 0-2.668.926-5.542 2.78-2.873 1.855-5.028 2.782-6.465 2.782-2.463 0-3.695-1.442-3.695-4.327 0-3.708 1.745-8.138 5.234-13.288-.616-1.648-3.694-3.606-9.236-5.872-8.621 3.09-14.163 4.636-16.626 4.636-.616 0-1.642-1.597-3.08-4.79-1.436-3.194-3.797-4.79-7.08-4.79-10.264 0-20.321 3.708-30.174 11.125-8.415 6.18-12.623 11.331-12.623 15.452 0 1.03.462 2.936 1.385 5.717.924 2.781 1.386 4.893 1.386 6.335 0 4.12-.77 7.52-2.31 10.198-1.539 2.679-3.13 4.018-4.772 4.018-1.231 0-2.257-.618-3.078-1.854-.821-1.236-1.232-2.988-1.232-5.254v-6.18c0-9.272 3.797-18.337 11.392-27.196 8.21-9.477 19.191-16.791 32.944-21.942 0-.824-2.155-2.266-6.466-4.326-5.952-2.679-11.494-6.696-16.626-12.053-9.031-9.477-13.547-17.1-13.547-22.869 0-2.266 1.642-3.399 4.926-3.399 3.08 0 5.337 2.266 6.774 6.799 2.053 5.975 3.181 9.065 3.387 9.271 7.39 7.623 17.241 13.392 29.557 17.306 17.037 5.15 26.068 8.035 27.094 8.653 10.879 5.563 19.397 12.465 25.555 20.706 4.31 5.768 8.21 13.288 11.7 22.56 2.873 7.416 4.31 11.949 4.31 13.597v5.872c-.616.824-1.437 1.236-2.463 1.236h-.001Z" clip-rule="evenodd"/></g><defs><clipPath id="a"><path fill="#fff" d="M0 0h324v324H0z"/></clipPath></defs></svg>