<svg xmlns="http://www.w3.org/2000/svg" width="1000" height="360" fill="none"><path fill="#fff" d="M0 0h1000v360H0z"/><path fill="#000" d="M169.872 129.529c0-1.974-.179-3.948-.538-5.922-.18-2.153-.718-4.038-1.615-5.653a9.156 9.156 0 0 0-3.5-4.307c-1.435-1.076-3.499-1.615-6.191-1.615-3.409 0-6.281 1.077-8.613 3.23-1.077-2.871-1.616-5.473-1.616-7.806 0-2.871.449-5.652 1.346-8.344a20.924 20.924 0 0 1 4.846-7.537c2.153-2.154 4.845-3.859 8.075-5.115 3.41-1.435 7.537-2.153 12.382-2.153 10.767 0 19.112 3.23 25.034 9.69 5.922 6.461 8.883 15.344 8.883 26.649V280c-4.845 0-9.601-.359-14.267-1.077-4.486-.718-8.613-2.153-12.382-4.307-3.589-2.332-6.46-5.742-8.614-10.228-2.153-4.487-3.23-10.498-3.23-18.035V129.529ZM143.762 280h-2.692c-4.666 0-9.152-.449-13.459-1.346s-8.165-2.512-11.575-4.845c-3.23-2.333-5.922-5.563-8.075-9.691-1.974-4.127-2.961-9.511-2.961-16.15V84.576h4.307c4.307 0 8.524.538 12.651 1.615 4.128.897 7.806 2.602 11.037 5.114 3.23 2.333 5.832 5.564 7.806 9.691 1.974 4.127 2.961 9.421 2.961 15.882V280Zm90.713-150.471c0-1.974-.179-3.948-.538-5.922-.18-2.153-.718-4.038-1.615-5.653a9.156 9.156 0 0 0-3.5-4.307c-1.435-1.076-3.499-1.615-6.191-1.615-3.409 0-6.281 1.077-8.614 3.23-1.076-2.871-1.615-5.473-1.615-7.806 0-2.871.449-5.652 1.346-8.344a20.924 20.924 0 0 1 4.846-7.537c2.153-2.154 4.845-3.859 8.075-5.115 3.41-1.435 7.537-2.153 12.382-2.153 10.767 0 19.112 3.23 25.034 9.69 5.922 6.461 8.883 15.344 8.883 26.649V280c-4.846 0-9.601-.359-14.267-1.077-4.486-.718-8.614-2.153-12.382-4.307-3.589-2.332-6.46-5.742-8.614-10.228-2.153-4.487-3.23-10.498-3.23-18.035V129.529ZM297.095 101.803c0-6.1 2.153-11.215 6.46-15.343 4.307-4.307 9.422-6.46 15.343-6.46 5.922 0 10.947 2.153 15.074 6.46 4.307 4.128 6.461 9.242 6.461 15.343 0 6.102-2.154 11.216-6.461 15.344-4.127 4.127-9.152 6.191-15.074 6.191-5.921 0-11.036-2.064-15.343-6.191-4.307-4.128-6.46-9.242-6.46-15.344Zm4.038 41.454h2.961c9.331 0 17.137 2.512 23.418 7.537 6.46 5.025 9.691 13.01 9.691 23.957V280h-1.615c-4.128 0-8.255-.538-12.383-1.615a36.387 36.387 0 0 1-11.036-5.114c-3.23-2.513-5.922-5.653-8.075-9.422-1.974-3.948-2.961-8.793-2.961-14.535V143.257ZM398.062 212.705h-2.422c-4.128 0-8.255-.448-12.383-1.346-3.947-1.076-7.537-2.781-10.767-5.114-3.05-2.512-5.563-5.743-7.537-9.69-1.974-3.948-2.961-8.794-2.961-14.536v-6.999c0-6.46 1.077-11.754 3.23-15.881 2.154-4.128 4.935-7.358 8.345-9.691 3.41-2.333 7.268-3.948 11.575-4.845a63.21 63.21 0 0 1 12.92-1.346v69.448Zm22.881-2.153h2.422c4.128 0 8.165.538 12.113 1.615 4.128.897 7.717 2.602 10.767 5.114 3.231 2.333 5.833 5.474 7.807 9.422 1.974 3.948 2.961 8.793 2.961 14.535v6.999c0 6.46-1.077 11.754-3.231 15.881-2.153 4.128-4.935 7.358-8.344 9.691-3.41 2.333-7.268 3.948-11.575 4.845a63.217 63.217 0 0 1-12.92 1.346v-69.448Zm34.993-43.607c0 5.742-1.077 10.318-3.23 13.728-2.154 3.41-4.756 6.101-7.807 8.075-3.05 1.974-6.28 3.32-9.69 4.038-3.41.538-6.371.808-8.883.808-2.153 0-3.948-.18-5.383-.539v-12.382c0-3.769-.898-6.55-2.692-8.345-1.795-1.794-4.038-2.691-6.73-2.691-3.409 0-6.281 1.076-8.613 3.23-.539-1.436-.898-2.692-1.077-3.769v-4.037c0-2.154.359-4.576 1.077-7.268.717-2.872 2.063-5.474 4.037-7.806 1.974-2.513 4.666-4.577 8.076-6.192 3.409-1.794 7.716-2.691 12.92-2.691 4.845 0 8.973.807 12.382 2.422 3.589 1.436 6.461 3.41 8.614 5.922 2.333 2.513 4.038 5.294 5.115 8.345 1.256 3.05 1.884 6.101 1.884 9.152Zm-92.598 87.214c0-5.563 1.077-10.05 3.23-13.459 2.154-3.589 4.756-6.371 7.807-8.345 3.05-1.974 6.28-3.23 9.69-3.768 3.41-.718 6.371-1.077 8.883-1.077 2.153 0 3.948.18 5.384.538v12.383c0 3.768.897 6.55 2.691 8.344 1.795 1.795 4.038 2.692 6.73 2.692 3.23 0 6.101-1.077 8.613-3.23.539 1.435.808 2.781.808 4.038.179 1.076.269 2.332.269 3.768 0 2.154-.448 4.666-1.346 7.537-.717 2.692-2.153 5.294-4.307 7.806-1.974 2.333-4.665 4.397-8.075 6.191-3.23 1.615-7.357 2.423-12.382 2.423-4.845 0-9.063-.718-12.652-2.153-3.409-1.616-6.28-3.679-8.613-6.192a30.683 30.683 0 0 1-5.115-8.344c-1.076-3.051-1.615-6.101-1.615-9.152ZM514.577 238.816v5.652c.179 1.974.538 3.769 1.077 5.384.717 1.615 1.704 2.961 2.961 4.038 1.256 1.076 3.05 1.615 5.383 1.615 2.871 0 5.025-.718 6.46-2.154 1.616-1.615 2.782-2.961 3.5-4.037.359 1.076.628 2.691.807 4.845.359 2.153.539 3.948.539 5.383 0 6.82-2.333 11.934-6.999 15.344-4.486 3.409-10.498 5.114-18.035 5.114-9.87 0-17.676-3.051-23.419-9.152-5.563-6.101-8.344-16.151-8.344-30.148V117.147c0-4.487.538-8.704 1.615-12.652 1.256-3.948 3.14-7.357 5.653-10.229 2.512-3.05 5.742-5.383 9.69-6.998 4.128-1.795 9.063-2.692 14.805-2.692.718 0 1.436.09 2.153.27h2.154v153.97Zm4.576-94.213H522.114c1.256-.179 3.23-.269 5.922-.269h12.113c.179.538.269 1.884.269 4.037 0 6.82-1.615 12.203-4.845 16.151-3.23 3.769-8.704 5.653-16.42 5.653v-25.572ZM592.124 237.47c0 2.153.089 4.217.269 6.191.359 1.974.897 3.768 1.615 5.383.897 1.436 2.064 2.692 3.499 3.769 1.615.897 3.769 1.346 6.46 1.346 1.436 0 2.872-.18 4.307-.539a12.723 12.723 0 0 0 4.307-2.422c.718 1.435 1.167 2.871 1.346 4.307.18 1.256.269 2.602.269 4.037 0 5.743-2.333 10.588-6.998 14.536-4.666 3.948-11.037 5.922-19.112 5.922-9.691 0-17.497-2.871-23.419-8.614-5.742-5.742-8.613-14.535-8.613-26.379V143.526h1.615c10.767 0 19.201 2.602 25.302 7.806 6.102 5.025 9.153 13.19 9.153 24.496v61.642Zm61.372 41.992h-2.961c-9.331 0-17.227-2.423-23.687-7.268-6.281-5.025-9.422-13.1-9.422-24.226V143.526h1.615c3.948 0 7.986.539 12.113 1.615 4.128 1.077 7.807 2.872 11.037 5.384 3.409 2.333 6.101 5.473 8.075 9.421 2.154 3.948 3.23 8.704 3.23 14.267v105.249ZM739.135 185.249c0-2.153-.179-4.217-.538-6.191-.18-1.974-.718-3.679-1.615-5.115-.718-1.615-1.884-2.871-3.499-3.768-1.436-1.077-3.5-1.615-6.192-1.615-1.435 0-2.961.269-4.576.807-1.435.359-2.781 1.077-4.037 2.154-.718-1.436-1.167-2.782-1.346-4.038a34.575 34.575 0 0 1-.269-4.307c0-5.742 2.602-10.498 7.806-14.266 5.204-3.769 11.844-5.653 19.919-5.653 9.69 0 17.138 2.961 22.342 8.883 5.383 5.742 8.075 14.266 8.075 25.572V280h-1.615c-10.767 0-19.201-2.512-25.303-7.537-6.101-5.204-9.152-13.459-9.152-24.764v-62.45Zm-61.373-41.992h2.961c9.332 0 17.138 2.512 23.419 7.537 6.46 5.025 9.69 13.01 9.69 23.957V280h-1.615c-4.127 0-8.254-.538-12.382-1.615a36.376 36.376 0 0 1-11.036-5.114c-3.23-2.513-5.922-5.653-8.076-9.422-1.974-3.948-2.961-8.793-2.961-14.535V143.257ZM835.541 280h-2.692c-4.127 0-8.165-.449-12.113-1.346-3.948-1.077-7.537-2.781-10.767-5.114-3.05-2.513-5.563-5.743-7.537-9.691-1.974-3.948-2.961-8.793-2.961-14.535v-72.41c0-9.869 2.333-17.945 6.999-24.226 4.845-6.281 12.651-9.421 23.419-9.421 7.178 0 13.1 1.884 17.765 5.653 4.666 3.589 6.999 9.421 6.999 17.496 0 2.692-.359 4.666-1.077 5.922-2.512-2.153-5.204-3.23-8.075-3.23-3.948 0-6.64 1.346-8.075 4.038-1.257 2.692-1.885 5.563-1.885 8.614V280Zm23.957-136.474a13.73 13.73 0 0 1 2.692-.269h2.692c9.69 0 17.227 2.512 22.611 7.537 5.383 4.845 8.075 11.844 8.075 20.996v14.805c0 12.203-3.051 21.265-9.152 27.187-6.101 5.922-13.549 8.883-22.342 8.883h-1.884c-6.819-.359-12.382-2.602-16.689-6.73-4.128-4.306-6.191-9.421-6.191-15.343v-2.422c.179-.718.538-1.795 1.077-3.231 1.435 1.436 2.691 2.513 3.768 3.231 1.077.717 2.871 1.076 5.384 1.076 4.127 0 6.819-1.435 8.075-4.307 1.256-3.05 1.884-6.55 1.884-10.498v-40.915Zm34.993 110.364c0 5.024-.897 9.241-2.691 12.651-1.615 3.23-3.769 5.922-6.461 8.075a27.192 27.192 0 0 1-8.883 4.307c-3.23.718-6.37 1.077-9.421 1.077-9.152 0-15.612-2.243-19.381-6.729-3.768-4.487-5.652-9.511-5.652-15.074v-3.231c.179-1.256.628-2.602 1.345-4.037 2.333 2.153 5.025 3.23 8.076 3.23 4.307-.359 6.819-1.795 7.537-4.307.718-2.512 1.077-5.653 1.077-9.421v-9.96c2.691-.718 5.922-1.077 9.69-1.077 4.666 0 8.524.718 11.575 2.154 3.23 1.435 5.832 3.32 7.806 5.653 1.974 2.332 3.32 5.024 4.038 8.075.897 2.871 1.345 5.742 1.345 8.614Z"/></svg>