<svg width="1158" height="324" fill="none" xmlns="http://www.w3.org/2000/svg"><path d="M431.872 111.529c0-1.974-.179-3.948-.538-5.922-.18-2.153-.718-4.038-1.615-5.653a9.152 9.152 0 0 0-3.5-4.307c-1.435-1.076-3.499-1.615-6.191-1.615-3.409 0-6.281 1.077-8.613 3.23-1.077-2.87-1.616-5.473-1.616-7.806 0-2.871.449-5.653 1.346-8.344a20.924 20.924 0 0 1 4.846-7.537c2.153-2.154 4.845-3.859 8.075-5.115 3.41-1.435 7.537-2.153 12.382-2.153 10.767 0 19.112 3.23 25.034 9.69 5.922 6.46 8.883 15.344 8.883 26.649V262c-4.845 0-9.601-.359-14.267-1.077-4.486-.718-8.613-2.153-12.382-4.307-3.589-2.332-6.46-5.742-8.614-10.228-2.153-4.487-3.23-10.498-3.23-18.035V111.529zM405.762 262h-2.692c-4.666 0-9.152-.449-13.459-1.346s-8.165-2.512-11.575-4.845c-3.23-2.333-5.922-5.563-8.075-9.691-1.974-4.127-2.961-9.511-2.961-16.15V66.576h4.307c4.307 0 8.524.538 12.651 1.615 4.128.897 7.806 2.602 11.037 5.114 3.23 2.333 5.832 5.564 7.806 9.691 1.974 4.127 2.961 9.421 2.961 15.882V262zm90.713-150.471c0-1.974-.179-3.948-.538-5.922-.18-2.153-.718-4.038-1.615-5.653a9.152 9.152 0 0 0-3.5-4.307c-1.435-1.076-3.499-1.615-6.191-1.615-3.409 0-6.281 1.077-8.614 3.23-1.076-2.87-1.615-5.473-1.615-7.806 0-2.871.449-5.653 1.346-8.344a20.924 20.924 0 0 1 4.846-7.537c2.153-2.154 4.845-3.859 8.075-5.115 3.41-1.435 7.537-2.153 12.382-2.153 10.767 0 19.112 3.23 25.034 9.69 5.922 6.46 8.883 15.344 8.883 26.649V262c-4.846 0-9.601-.359-14.267-1.077-4.486-.718-8.614-2.153-12.382-4.307-3.589-2.332-6.46-5.742-8.614-10.228-2.153-4.487-3.23-10.498-3.23-18.035V111.529zM559.095 83.803c0-6.1 2.153-11.215 6.46-15.343 4.307-4.307 9.422-6.46 15.343-6.46 5.922 0 10.947 2.153 15.074 6.46 4.307 4.128 6.461 9.242 6.461 15.344 0 6.1-2.154 11.215-6.461 15.343-4.127 4.127-9.152 6.191-15.074 6.191-5.921 0-11.036-2.064-15.343-6.191-4.307-4.128-6.46-9.242-6.46-15.344zm4.038 41.454h2.961c9.331 0 17.137 2.512 23.418 7.537 6.46 5.025 9.691 13.01 9.691 23.957V262h-1.615c-4.128 0-8.255-.538-12.383-1.615a36.387 36.387 0 0 1-11.036-5.114c-3.23-2.513-5.922-5.653-8.075-9.422-1.974-3.948-2.961-8.793-2.961-14.535V125.257zM660.062 194.705h-2.422a58.08 58.08 0 0 1-12.382-1.346c-3.948-1.076-7.538-2.781-10.768-5.114-3.05-2.512-5.563-5.743-7.537-9.69-1.974-3.948-2.961-8.794-2.961-14.536v-6.999c0-6.46 1.077-11.754 3.23-15.881 2.154-4.128 4.935-7.358 8.345-9.691 3.41-2.333 7.268-3.948 11.575-4.845a63.21 63.21 0 0 1 12.92-1.346v69.448zm22.881-2.153h2.422c4.128 0 8.165.538 12.113 1.615 4.128.897 7.717 2.602 10.767 5.114 3.231 2.333 5.833 5.474 7.807 9.422 1.974 3.948 2.961 8.793 2.961 14.535v6.999c0 6.46-1.077 11.754-3.231 15.881-2.153 4.128-4.935 7.358-8.344 9.691-3.41 2.333-7.268 3.948-11.575 4.845a63.217 63.217 0 0 1-12.92 1.346v-69.448zm34.993-43.607c0 5.742-1.077 10.318-3.23 13.728-2.154 3.41-4.756 6.101-7.807 8.075-3.05 1.974-6.28 3.32-9.69 4.038-3.41.538-6.371.808-8.883.808-2.153 0-3.948-.18-5.383-.539v-12.382c0-3.769-.898-6.55-2.692-8.345-1.795-1.794-4.038-2.691-6.73-2.691-3.409 0-6.281 1.076-8.613 3.23-.539-1.436-.898-2.692-1.077-3.769v-4.037c0-2.154.359-4.576 1.077-7.268.717-2.872 2.063-5.474 4.037-7.806 1.974-2.513 4.666-4.577 8.076-6.192 3.409-1.794 7.716-2.691 12.92-2.691 4.845 0 8.973.807 12.382 2.422 3.59 1.436 6.461 3.41 8.614 5.922 2.333 2.513 4.038 5.294 5.115 8.345 1.256 3.05 1.884 6.101 1.884 9.152zm-92.598 87.214c0-5.563 1.077-10.05 3.23-13.459 2.154-3.589 4.756-6.371 7.807-8.345 3.05-1.974 6.28-3.23 9.69-3.768 3.41-.718 6.371-1.077 8.883-1.077 2.153 0 3.948.18 5.384.538v12.383c0 3.768.897 6.55 2.691 8.344 1.795 1.795 4.038 2.692 6.73 2.692 3.23 0 6.101-1.077 8.613-3.23.539 1.436.808 2.781.808 4.038.179 1.076.269 2.332.269 3.768 0 2.154-.448 4.666-1.346 7.537-.717 2.692-2.153 5.294-4.307 7.806-1.974 2.333-4.665 4.397-8.075 6.191-3.23 1.615-7.357 2.423-12.382 2.423-4.845 0-9.063-.718-12.652-2.153-3.409-1.616-6.28-3.679-8.613-6.192a30.683 30.683 0 0 1-5.115-8.344c-1.076-3.051-1.615-6.101-1.615-9.152zM776.577 220.816v5.652c.179 1.974.538 3.769 1.077 5.384.717 1.615 1.704 2.961 2.961 4.038 1.256 1.076 3.05 1.615 5.383 1.615 2.871 0 5.025-.718 6.46-2.154 1.616-1.615 2.782-2.961 3.5-4.037.359 1.076.628 2.691.807 4.845.359 2.153.539 3.948.539 5.383 0 6.82-2.333 11.934-6.999 15.344-4.486 3.409-10.498 5.114-18.035 5.114-9.87 0-17.676-3.051-23.419-9.152-5.563-6.101-8.344-16.151-8.344-30.148V99.147c0-4.487.538-8.704 1.615-12.652 1.256-3.948 3.14-7.357 5.653-10.229 2.512-3.05 5.742-5.383 9.69-6.998 4.128-1.795 9.063-2.692 14.805-2.692.718 0 1.436.09 2.153.27h2.154v153.97zm4.576-94.213H784.114c1.256-.179 3.23-.269 5.922-.269h12.113c.179.538.269 1.884.269 4.037 0 6.82-1.615 12.203-4.845 16.151-3.23 3.769-8.704 5.653-16.42 5.653v-25.572zM854.124 219.47c0 2.153.089 4.217.269 6.191.359 1.974.897 3.768 1.615 5.383.897 1.436 2.064 2.692 3.499 3.769 1.615.897 3.769 1.346 6.46 1.346 1.436 0 2.872-.18 4.307-.539a12.723 12.723 0 0 0 4.307-2.422c.718 1.435 1.167 2.871 1.346 4.307.18 1.256.269 2.602.269 4.037 0 5.743-2.333 10.588-6.998 14.536-4.666 3.948-11.037 5.922-19.112 5.922-9.691 0-17.497-2.871-23.419-8.614-5.742-5.742-8.613-14.535-8.613-26.379V125.526h1.615c10.767 0 19.201 2.602 25.302 7.806 6.102 5.025 9.153 13.19 9.153 24.496v61.642zm61.372 41.992h-2.961c-9.331 0-17.227-2.423-23.687-7.268-6.281-5.025-9.422-13.1-9.422-24.226V125.526h1.615c3.948 0 7.986.539 12.113 1.615 4.128 1.077 7.807 2.872 11.037 5.384 3.409 2.333 6.101 5.473 8.075 9.421 2.154 3.948 3.23 8.704 3.23 14.267v105.249zM1001.14 167.249c0-2.153-.18-4.217-.54-6.191-.18-1.974-.721-3.679-1.618-5.115-.718-1.615-1.884-2.871-3.5-3.768-1.435-1.077-3.499-1.615-6.191-1.615-1.435 0-2.961.269-4.576.807-1.435.359-2.781 1.077-4.037 2.154-.718-1.436-1.167-2.782-1.346-4.038a34.575 34.575 0 0 1-.269-4.307c0-5.742 2.602-10.498 7.806-14.266 5.204-3.769 11.844-5.653 19.921-5.653 9.69 0 17.14 2.961 22.34 8.883 5.38 5.742 8.08 14.266 8.08 25.572V262h-1.62c-10.77 0-19.2-2.512-25.3-7.537-6.1-5.204-9.15-13.459-9.15-24.764v-62.45zm-61.378-41.992h2.961c9.332 0 17.138 2.512 23.419 7.537 6.46 5.025 9.69 13.01 9.69 23.957V262h-1.615c-4.127 0-8.254-.538-12.382-1.615a36.376 36.376 0 0 1-11.036-5.114c-3.23-2.513-5.922-5.653-8.076-9.422-1.974-3.948-2.961-8.793-2.961-14.535V125.257zM1097.54 262h-2.69c-4.13 0-8.17-.449-12.11-1.346-3.95-1.077-7.54-2.781-10.77-5.114-3.05-2.513-5.56-5.743-7.54-9.691-1.97-3.948-2.96-8.793-2.96-14.535v-72.41c0-9.869 2.33-17.945 7-24.226 4.85-6.281 12.65-9.421 23.42-9.421 7.18 0 13.1 1.884 17.76 5.653 4.67 3.589 7 9.421 7 17.496 0 2.692-.36 4.666-1.07 5.922-2.52-2.153-5.21-3.23-8.08-3.23-3.95 0-6.64 1.346-8.07 4.038-1.26 2.692-1.89 5.563-1.89 8.614V262zm23.96-136.474c.9-.179 1.79-.269 2.69-.269h2.69c9.69 0 17.23 2.512 22.61 7.537 5.39 4.845 8.08 11.844 8.08 20.996v14.805c0 12.203-3.05 21.265-9.15 27.187-6.11 5.922-13.55 8.883-22.35 8.883h-1.88c-6.82-.359-12.38-2.602-16.69-6.73-4.13-4.306-6.19-9.421-6.19-15.343v-2.422c.18-.718.54-1.795 1.08-3.231 1.43 1.436 2.69 2.513 3.76 3.231 1.08.717 2.88 1.076 5.39 1.076 4.13 0 6.82-1.435 8.07-4.307 1.26-3.05 1.89-6.55 1.89-10.498v-40.915zm34.99 110.364c0 5.024-.9 9.241-2.69 12.651-1.62 3.23-3.77 5.922-6.46 8.075a27.177 27.177 0 0 1-8.88 4.307c-3.23.718-6.37 1.077-9.42 1.077-9.16 0-15.62-2.243-19.39-6.729-3.76-4.487-5.65-9.511-5.65-15.074v-3.231c.18-1.256.63-2.602 1.35-4.037 2.33 2.153 5.02 3.23 8.07 3.23 4.31-.359 6.82-1.795 7.54-4.307.72-2.512 1.08-5.653 1.08-9.421v-9.96c2.69-.718 5.92-1.077 9.69-1.077 4.66 0 8.52.718 11.57 2.154 3.23 1.435 5.83 3.32 7.81 5.653 1.97 2.332 3.32 5.024 4.04 8.075.89 2.871 1.34 5.742 1.34 8.614z" fill="#000"/><g clip-path="url(#a)"><path d="M0 0h324v324H0V0z" fill="#000"/><path fill-rule="evenodd" clip-rule="evenodd" d="M167.036 214c-1.024-2.678-1.536-5.15-1.536-7.417 0-3.296 1.434-8.653 4.3-16.07 3.483-9.271 7.783-16.688 12.904-22.25 5.12-5.563 15.155-11.435 30.106-17.616 5.735-2.266 12.084-4.069 19.047-5.408 6.963-1.34 11.367-2.318 13.21-2.936 9.626-3.708 16.487-7.52 20.583-11.434 5.12-4.739 8.294-11.229 9.523-19.47 1.639-2.266 3.482-3.399 5.53-3.399 2.867 0 4.3 1.854 4.3 5.563 0 1.854-1.535 4.738-4.607 8.653-4.916 7.005-8.192 11.743-9.83 14.215-2.663 4.533-11.47 10.508-26.42 17.925 27.853 7.005 42.292 21.735 43.316 44.192.204 3.709-.41 6.696-1.844 8.962-1.433 2.266-2.97 3.4-4.608 3.4-1.638 0-2.765-1.237-3.38-3.709a176.4 176.4 0 0 0 .615-5.872c.205-2.266.308-3.708.308-4.326 0-7.623-3.175-15.143-9.524-22.56-7.783-8.653-17.408-13.082-28.877-13.288-.82-.619-1.844-.928-3.073-.928-2.662 0-3.993 1.34-3.993 4.018 0 .618.256 1.597.768 2.936s.768 2.42.768 3.245c0 3.502-1.331 5.253-3.994 5.253-1.024 0-3.584-1.493-7.68-4.48-4.096-2.988-7.987-4.482-11.674-4.482-5.735 0-9.78 2.112-12.135 6.335-2.355 4.224-4.864 6.645-7.526 7.263-5.94 1.236-10.24 4.326-12.903 9.271-1.843 3.296-4.608 11.331-8.295 24.105l-3.379.309zm-11.5 1.5c-2.257 0-4.002-.721-5.233-2.163-4.105-19.16-9.237-28.74-15.395-28.74-.82 0-2.668.926-5.542 2.78-2.873 1.855-5.028 2.782-6.465 2.782-2.463 0-3.695-1.442-3.695-4.327 0-3.708 1.745-8.138 5.234-13.288-.616-1.648-3.694-3.606-9.236-5.872-8.621 3.09-14.163 4.636-16.626 4.636-.616 0-1.642-1.597-3.08-4.79-1.436-3.194-3.797-4.79-7.08-4.79-10.264 0-20.321 3.708-30.174 11.125-8.415 6.18-12.623 11.331-12.623 15.452 0 1.03.462 2.936 1.385 5.717.924 2.781 1.386 4.893 1.386 6.335 0 4.12-.77 7.52-2.31 10.198-1.539 2.679-3.13 4.018-4.772 4.018-1.231 0-2.257-.618-3.078-1.854-.821-1.236-1.232-2.988-1.232-5.254v-6.18c0-9.272 3.797-18.337 11.392-27.196 8.21-9.477 19.191-16.791 32.944-21.942 0-.824-2.155-2.266-6.466-4.326-5.952-2.679-11.494-6.696-16.626-12.053-9.031-9.477-13.547-17.1-13.547-22.869 0-2.266 1.642-3.399 4.926-3.399 3.08 0 5.337 2.266 6.774 6.799 2.053 5.975 3.181 9.065 3.387 9.271 7.39 7.623 17.241 13.392 29.557 17.306 17.037 5.15 26.068 8.035 27.094 8.653 10.879 5.563 19.397 12.465 25.555 20.706 4.31 5.768 8.21 13.288 11.7 22.56 2.873 7.416 4.31 11.949 4.31 13.597v5.872c-.616.824-1.437 1.236-2.463 1.236h-.001z" fill="#fff"/></g><defs><clipPath id="a"><rect width="324" height="324" rx="20" fill="#fff"/></clipPath></defs></svg>